<?xml version="1.0" encoding="utf-8"?>
<!-- Generated by IcoMoon.io -->
<!DOCTYPE svg PUBLIC "-//W3C//DTD SVG 1.1//EN" "http://www.w3.org/Graphics/SVG/1.1/DTD/svg11.dtd">
<svg version="1.1" xmlns="http://www.w3.org/2000/svg" xmlns:xlink="http://www.w3.org/1999/xlink" width="24" height="24" viewBox="0 0 24 24">
<path d="M22.628 20l-4.343-4.457c1.028-1.6 1.715-3.543 1.715-5.486 0-5.486-4.457-10.058-9.943-10.058s-10.057 4.457-10.057 10.058 4.457 10.057 9.943 10.057c2.057 0 3.886-0.572 5.486-1.715l4.342 4.343c0.343 0.343 1.028 0.343 1.372 0l1.372-1.372c0.457-0.343 0.457-1.028 0.114-1.372zM9.943 18.057c-4.343 0-8-3.657-8-8s3.543-8 8-8 8 3.657 8 8-3.543 8-8 8z"></path>
</svg>
